<svg width="185" height="45" viewBox="0 0 185 45" fill="none" xmlns="http://www.w3.org/2000/svg">
<path d="M37 19.5H39V17.5H37M38 30.5C33.59 30.5 30 26.91 30 22.5C30 18.09 33.59 14.5 38 14.5C42.41 14.5 46 18.09 46 22.5C46 26.91 42.41 30.5 38 30.5ZM38 12.5C36.6868 12.5 35.3864 12.7587 34.1732 13.2612C32.9599 13.7638 31.8575 14.5003 30.9289 15.4289C29.0536 17.3043 28 19.8478 28 22.5C28 25.1522 29.0536 27.6957 30.9289 29.5711C31.8575 30.4997 32.9599 31.2362 34.1732 31.7388C35.3864 32.2413 36.6868 32.5 38 32.5C40.6522 32.5 43.1957 31.4464 45.0711 29.5711C46.9464 27.6957 48 25.1522 48 22.5C48 21.1868 47.7413 19.8864 47.2388 18.6732C46.7362 17.4599 45.9997 16.3575 45.0711 15.4289C44.1425 14.5003 43.0401 13.7638 41.8268 13.2612C40.6136 12.7587 39.3132 12.5 38 12.5ZM37 27.5H39V21.5H37V27.5Z" fill="white"/>
<path d="M65.448 19.036C65.384 19.148 65.3147 19.2307 65.24 19.284C65.1707 19.332 65.0827 19.356 64.976 19.356C64.864 19.356 64.7413 19.316 64.608 19.236C64.48 19.1507 64.3253 19.0573 64.144 18.956C63.9627 18.8547 63.7493 18.764 63.504 18.684C63.264 18.5987 62.9787 18.556 62.648 18.556C62.3493 18.556 62.088 18.5933 61.864 18.668C61.64 18.7373 61.4507 18.836 61.296 18.964C61.1467 19.092 61.0347 19.2467 60.96 19.428C60.8853 19.604 60.848 19.7987 60.848 20.012C60.848 20.284 60.9227 20.5107 61.072 20.692C61.2267 20.8733 61.4293 21.028 61.68 21.156C61.9307 21.284 62.216 21.3987 62.536 21.5C62.856 21.6013 63.184 21.7107 63.52 21.828C63.856 21.94 64.184 22.0733 64.504 22.228C64.824 22.3773 65.1093 22.5693 65.36 22.804C65.6107 23.0333 65.8107 23.316 65.96 23.652C66.1147 23.988 66.192 24.396 66.192 24.876C66.192 25.3987 66.1013 25.8893 65.92 26.348C65.744 26.8013 65.4827 27.1987 65.136 27.54C64.7947 27.876 64.376 28.1427 63.88 28.34C63.384 28.532 62.816 28.628 62.176 28.628C61.808 28.628 61.4453 28.5907 61.088 28.516C60.7307 28.4467 60.3867 28.3453 60.056 28.212C59.7307 28.0787 59.424 27.9187 59.136 27.732C58.848 27.5453 58.592 27.3373 58.368 27.108L59 26.076C59.0533 26.0013 59.1227 25.94 59.208 25.892C59.2933 25.8387 59.384 25.812 59.48 25.812C59.6133 25.812 59.7573 25.868 59.912 25.98C60.0667 26.0867 60.2507 26.2067 60.464 26.34C60.6773 26.4733 60.9253 26.596 61.208 26.708C61.496 26.8147 61.84 26.868 62.24 26.868C62.8533 26.868 63.328 26.724 63.664 26.436C64 26.1427 64.168 25.724 64.168 25.18C64.168 24.876 64.0907 24.628 63.936 24.436C63.7867 24.244 63.5867 24.084 63.336 23.956C63.0853 23.8227 62.8 23.7107 62.48 23.62C62.16 23.5293 61.8347 23.4307 61.504 23.324C61.1733 23.2173 60.848 23.0893 60.528 22.94C60.208 22.7907 59.9227 22.596 59.672 22.356C59.4213 22.116 59.2187 21.8173 59.064 21.46C58.9147 21.0973 58.84 20.652 58.84 20.124C58.84 19.7027 58.9227 19.292 59.088 18.892C59.2587 18.492 59.504 18.1373 59.824 17.828C60.144 17.5187 60.5387 17.2707 61.008 17.084C61.4773 16.8973 62.016 16.804 62.624 16.804C63.3067 16.804 63.936 16.9107 64.512 17.124C65.088 17.3373 65.5787 17.636 65.984 18.02L65.448 19.036ZM73.214 23.452C73.214 23.196 73.1767 22.956 73.102 22.732C73.0327 22.5027 72.926 22.3027 72.782 22.132C72.638 21.9613 72.454 21.828 72.23 21.732C72.0113 21.6307 71.7553 21.58 71.462 21.58C70.8913 21.58 70.4407 21.7427 70.11 22.068C69.7847 22.3933 69.5767 22.8547 69.486 23.452H73.214ZM69.446 24.644C69.478 25.0653 69.5527 25.4307 69.67 25.74C69.7873 26.044 69.942 26.2973 70.134 26.5C70.326 26.6973 70.5527 26.8467 70.814 26.948C71.0807 27.044 71.374 27.092 71.694 27.092C72.014 27.092 72.2887 27.0547 72.518 26.98C72.7527 26.9053 72.9553 26.8227 73.126 26.732C73.302 26.6413 73.454 26.5587 73.582 26.484C73.7153 26.4093 73.8433 26.372 73.966 26.372C74.1313 26.372 74.254 26.4333 74.334 26.556L74.902 27.276C74.6833 27.532 74.438 27.748 74.166 27.924C73.894 28.0947 73.6087 28.2333 73.31 28.34C73.0167 28.4413 72.7153 28.5133 72.406 28.556C72.102 28.5987 71.806 28.62 71.518 28.62C70.9473 28.62 70.4167 28.5267 69.926 28.34C69.4353 28.148 69.0087 27.868 68.646 27.5C68.2833 27.1267 67.998 26.668 67.79 26.124C67.582 25.5747 67.478 24.94 67.478 24.22C67.478 23.66 67.5687 23.1347 67.75 22.644C67.9313 22.148 68.19 21.7187 68.526 21.356C68.8673 20.988 69.2807 20.6973 69.766 20.484C70.2567 20.2707 70.8087 20.164 71.422 20.164C71.9393 20.164 72.4167 20.2467 72.854 20.412C73.2913 20.5773 73.6673 20.82 73.982 21.14C74.2967 21.4547 74.542 21.844 74.718 22.308C74.8993 22.7667 74.99 23.292 74.99 23.884C74.99 24.1827 74.958 24.3853 74.894 24.492C74.83 24.5933 74.7073 24.644 74.526 24.644H69.446ZM78.6729 16.612V28.5H76.6969V16.612H78.6729ZM86.1296 23.452C86.1296 23.196 86.0923 22.956 86.0176 22.732C85.9483 22.5027 85.8416 22.3027 85.6976 22.132C85.5536 21.9613 85.3696 21.828 85.1456 21.732C84.927 21.6307 84.671 21.58 84.3776 21.58C83.807 21.58 83.3563 21.7427 83.0256 22.068C82.7003 22.3933 82.4923 22.8547 82.4016 23.452H86.1296ZM82.3616 24.644C82.3936 25.0653 82.4683 25.4307 82.5856 25.74C82.703 26.044 82.8576 26.2973 83.0496 26.5C83.2416 26.6973 83.4683 26.8467 83.7296 26.948C83.9963 27.044 84.2896 27.092 84.6096 27.092C84.9296 27.092 85.2043 27.0547 85.4336 26.98C85.6683 26.9053 85.871 26.8227 86.0416 26.732C86.2176 26.6413 86.3696 26.5587 86.4976 26.484C86.631 26.4093 86.759 26.372 86.8816 26.372C87.047 26.372 87.1696 26.4333 87.2496 26.556L87.8176 27.276C87.599 27.532 87.3536 27.748 87.0816 27.924C86.8096 28.0947 86.5243 28.2333 86.2256 28.34C85.9323 28.4413 85.631 28.5133 85.3216 28.556C85.0176 28.5987 84.7216 28.62 84.4336 28.62C83.863 28.62 83.3323 28.5267 82.8416 28.34C82.351 28.148 81.9243 27.868 81.5616 27.5C81.199 27.1267 80.9136 26.668 80.7056 26.124C80.4976 25.5747 80.3936 24.94 80.3936 24.22C80.3936 23.66 80.4843 23.1347 80.6656 22.644C80.847 22.148 81.1056 21.7187 81.4416 21.356C81.783 20.988 82.1963 20.6973 82.6816 20.484C83.1723 20.2707 83.7243 20.164 84.3376 20.164C84.855 20.164 85.3323 20.2467 85.7696 20.412C86.207 20.5773 86.583 20.82 86.8976 21.14C87.2123 21.4547 87.4576 21.844 87.6336 22.308C87.815 22.7667 87.9056 23.292 87.9056 23.884C87.9056 24.1827 87.8736 24.3853 87.8096 24.492C87.7456 24.5933 87.623 24.644 87.4416 24.644H82.3616ZM91.4365 21.3C91.6018 21.1347 91.7752 20.9827 91.9565 20.844C92.1432 20.7 92.3378 20.58 92.5405 20.484C92.7485 20.3827 92.9698 20.3053 93.2045 20.252C93.4392 20.1933 93.6952 20.164 93.9725 20.164C94.4205 20.164 94.8178 20.2413 95.1645 20.396C95.5112 20.5453 95.7992 20.7587 96.0285 21.036C96.2632 21.308 96.4392 21.636 96.5565 22.02C96.6792 22.3987 96.7405 22.8173 96.7405 23.276V28.5H94.7645V23.276C94.7645 22.7747 94.6498 22.388 94.4205 22.116C94.1912 21.8387 93.8418 21.7 93.3725 21.7C93.0312 21.7 92.7112 21.7773 92.4125 21.932C92.1138 22.0867 91.8312 22.2973 91.5645 22.564V28.5H89.5885V20.292H90.7965C91.0525 20.292 91.2205 20.412 91.3005 20.652L91.4365 21.3ZM101.82 24.196C102.065 24.196 102.278 24.164 102.46 24.1C102.641 24.0307 102.79 23.9373 102.908 23.82C103.03 23.7027 103.121 23.5613 103.18 23.396C103.244 23.2307 103.276 23.0493 103.276 22.852C103.276 22.4467 103.153 22.1267 102.908 21.892C102.668 21.652 102.305 21.532 101.82 21.532C101.334 21.532 100.969 21.652 100.724 21.892C100.484 22.1267 100.364 22.4467 100.364 22.852C100.364 23.044 100.393 23.2227 100.452 23.388C100.516 23.5533 100.606 23.6973 100.724 23.82C100.846 23.9373 100.998 24.0307 101.18 24.1C101.366 24.164 101.58 24.196 101.82 24.196ZM104.052 28.868C104.052 28.708 104.004 28.5773 103.908 28.476C103.812 28.3747 103.681 28.2973 103.516 28.244C103.35 28.1853 103.156 28.1427 102.932 28.116C102.713 28.0893 102.478 28.0707 102.228 28.06C101.982 28.044 101.726 28.0307 101.46 28.02C101.198 28.0093 100.942 27.988 100.692 27.956C100.473 28.0787 100.294 28.2227 100.156 28.388C100.022 28.5533 99.9557 28.7453 99.9557 28.964C99.9557 29.108 99.9904 29.2413 100.06 29.364C100.134 29.492 100.249 29.6013 100.404 29.692C100.564 29.7827 100.769 29.852 101.02 29.9C101.27 29.9533 101.577 29.98 101.94 29.98C102.308 29.98 102.625 29.9507 102.892 29.892C103.158 29.8387 103.377 29.7613 103.548 29.66C103.724 29.564 103.852 29.4467 103.932 29.308C104.012 29.1747 104.052 29.028 104.052 28.868ZM106.02 20.572V21.308C106.02 21.5427 105.878 21.6867 105.596 21.74L104.86 21.876C104.972 22.1587 105.028 22.468 105.028 22.804C105.028 23.2093 104.945 23.5773 104.78 23.908C104.62 24.2333 104.396 24.5107 104.108 24.74C103.82 24.9693 103.478 25.148 103.084 25.276C102.694 25.3987 102.273 25.46 101.82 25.46C101.66 25.46 101.505 25.452 101.356 25.436C101.206 25.42 101.06 25.3987 100.916 25.372C100.66 25.5267 100.532 25.7 100.532 25.892C100.532 26.0573 100.606 26.18 100.756 26.26C100.91 26.3347 101.113 26.388 101.364 26.42C101.614 26.452 101.9 26.4733 102.22 26.484C102.54 26.4893 102.868 26.5053 103.204 26.532C103.54 26.5587 103.868 26.6067 104.188 26.676C104.508 26.74 104.793 26.844 105.044 26.988C105.294 27.132 105.494 27.3293 105.644 27.58C105.798 27.8253 105.876 28.1427 105.876 28.532C105.876 28.8947 105.785 29.2467 105.604 29.588C105.428 29.9293 105.169 30.2333 104.828 30.5C104.492 30.7667 104.076 30.98 103.58 31.14C103.089 31.3053 102.529 31.388 101.9 31.388C101.281 31.388 100.742 31.3267 100.284 31.204C99.8251 31.0867 99.4438 30.9267 99.1398 30.724C98.8358 30.5267 98.6091 30.2973 98.4598 30.036C98.3104 29.7747 98.2358 29.5027 98.2358 29.22C98.2358 28.836 98.3504 28.516 98.5798 28.26C98.8144 27.9987 99.1344 27.7907 99.5398 27.636C99.3211 27.524 99.1478 27.3747 99.0197 27.188C98.8918 27.0013 98.8278 26.756 98.8278 26.452C98.8278 26.3293 98.8491 26.204 98.8918 26.076C98.9398 25.9427 99.0064 25.812 99.0918 25.684C99.1824 25.556 99.2944 25.436 99.4278 25.324C99.5611 25.2067 99.7184 25.1027 99.8997 25.012C99.4838 24.788 99.1558 24.4893 98.9158 24.116C98.6811 23.7427 98.5638 23.3053 98.5638 22.804C98.5638 22.3987 98.6438 22.0333 98.8038 21.708C98.9691 21.3773 99.1958 21.0973 99.4838 20.868C99.7771 20.6333 100.121 20.4547 100.516 20.332C100.916 20.2093 101.35 20.148 101.82 20.148C102.172 20.148 102.502 20.1853 102.812 20.26C103.121 20.3293 103.404 20.4333 103.66 20.572H106.02ZM109.449 16.612V23.42H109.817C109.95 23.42 110.054 23.404 110.129 23.372C110.209 23.3347 110.289 23.2627 110.369 23.156L112.409 20.636C112.494 20.524 112.588 20.4387 112.689 20.38C112.796 20.3213 112.932 20.292 113.097 20.292H114.905L112.353 23.34C112.172 23.58 111.974 23.764 111.761 23.892C111.873 23.972 111.972 24.0653 112.057 24.172C112.148 24.2787 112.233 24.3933 112.313 24.516L115.049 28.5H113.265C113.11 28.5 112.977 28.476 112.865 28.428C112.753 28.3747 112.66 28.2813 112.585 28.148L110.489 25.036C110.414 24.9133 110.337 24.8333 110.257 24.796C110.177 24.7587 110.057 24.74 109.897 24.74H109.449V28.5H107.473V16.612H109.449ZM120.556 24.996C119.985 25.0227 119.505 25.0733 119.116 25.148C118.726 25.2173 118.414 25.308 118.18 25.42C117.945 25.532 117.777 25.6627 117.676 25.812C117.574 25.9613 117.524 26.124 117.524 26.3C117.524 26.6467 117.625 26.8947 117.828 27.044C118.036 27.1933 118.305 27.268 118.636 27.268C119.041 27.268 119.39 27.196 119.684 27.052C119.982 26.9027 120.273 26.6787 120.556 26.38V24.996ZM116.028 21.436C116.972 20.572 118.108 20.14 119.436 20.14C119.916 20.14 120.345 20.22 120.724 20.38C121.102 20.5347 121.422 20.7533 121.684 21.036C121.945 21.3133 122.142 21.6467 122.276 22.036C122.414 22.4253 122.484 22.852 122.484 23.316V28.5H121.588C121.401 28.5 121.257 28.4733 121.156 28.42C121.054 28.3613 120.974 28.2467 120.916 28.076L120.74 27.484C120.532 27.6707 120.329 27.836 120.132 27.98C119.934 28.1187 119.729 28.236 119.516 28.332C119.302 28.428 119.073 28.5 118.828 28.548C118.588 28.6013 118.321 28.628 118.028 28.628C117.681 28.628 117.361 28.5827 117.068 28.492C116.774 28.396 116.521 28.2547 116.308 28.068C116.094 27.8813 115.929 27.6493 115.812 27.372C115.694 27.0947 115.636 26.772 115.636 26.404C115.636 26.196 115.67 25.9907 115.74 25.788C115.809 25.58 115.921 25.3827 116.076 25.196C116.236 25.0093 116.441 24.8333 116.692 24.668C116.942 24.5027 117.249 24.3587 117.612 24.236C117.98 24.1133 118.406 24.0147 118.892 23.94C119.377 23.86 119.932 23.812 120.556 23.796V23.316C120.556 22.7667 120.438 22.3613 120.204 22.1C119.969 21.8333 119.63 21.7 119.188 21.7C118.868 21.7 118.601 21.7373 118.388 21.812C118.18 21.8867 117.996 21.972 117.836 22.068C117.676 22.1587 117.529 22.2413 117.396 22.316C117.268 22.3907 117.124 22.428 116.964 22.428C116.825 22.428 116.708 22.3933 116.612 22.324C116.516 22.2493 116.438 22.164 116.38 22.068L116.028 21.436ZM126.521 26.372C126.745 26.644 126.987 26.836 127.249 26.948C127.515 27.06 127.803 27.116 128.113 27.116C128.411 27.116 128.681 27.06 128.921 26.948C129.161 26.836 129.363 26.6653 129.529 26.436C129.699 26.2067 129.83 25.9187 129.921 25.572C130.011 25.22 130.057 24.8067 130.057 24.332C130.057 23.852 130.017 23.4467 129.937 23.116C129.862 22.78 129.753 22.508 129.609 22.3C129.465 22.092 129.289 21.94 129.081 21.844C128.878 21.748 128.646 21.7 128.385 21.7C127.974 21.7 127.625 21.788 127.337 21.964C127.049 22.1347 126.777 22.3773 126.521 22.692V26.372ZM126.417 21.412C126.753 21.0333 127.134 20.7267 127.561 20.492C127.987 20.2573 128.489 20.14 129.065 20.14C129.513 20.14 129.921 20.2333 130.289 20.42C130.662 20.6067 130.982 20.8787 131.249 21.236C131.521 21.588 131.729 22.0253 131.873 22.548C132.022 23.0653 132.097 23.66 132.097 24.332C132.097 24.9453 132.014 25.5133 131.849 26.036C131.683 26.5587 131.446 27.012 131.137 27.396C130.833 27.78 130.462 28.0813 130.025 28.3C129.593 28.5133 129.107 28.62 128.569 28.62C128.11 28.62 127.718 28.5507 127.393 28.412C127.067 28.268 126.777 28.0707 126.521 27.82V31.18H124.545V20.292H125.753C126.009 20.292 126.177 20.412 126.257 20.652L126.417 21.412ZM135.687 21.3C135.852 21.1347 136.025 20.9827 136.207 20.844C136.393 20.7 136.588 20.58 136.791 20.484C136.999 20.3827 137.22 20.3053 137.455 20.252C137.689 20.1933 137.945 20.164 138.223 20.164C138.671 20.164 139.068 20.2413 139.415 20.396C139.761 20.5453 140.049 20.7587 140.279 21.036C140.513 21.308 140.689 21.636 140.807 22.02C140.929 22.3987 140.991 22.8173 140.991 23.276V28.5H139.015V23.276C139.015 22.7747 138.9 22.388 138.671 22.116C138.441 21.8387 138.092 21.7 137.623 21.7C137.281 21.7 136.961 21.7773 136.663 21.932C136.364 22.0867 136.081 22.2973 135.815 22.564V28.5H133.839V20.292H135.047C135.303 20.292 135.471 20.412 135.551 20.652L135.687 21.3ZM150.307 20.292L145.835 30.756C145.776 30.8947 145.699 30.9987 145.603 31.068C145.512 31.1427 145.371 31.18 145.179 31.18H143.707L145.243 27.884L141.923 20.292H143.659C143.814 20.292 143.934 20.3293 144.019 20.404C144.11 20.4787 144.176 20.564 144.219 20.66L145.963 24.916C146.022 25.06 146.07 25.204 146.107 25.348C146.15 25.492 146.19 25.6387 146.227 25.788C146.275 25.6387 146.323 25.492 146.371 25.348C146.419 25.1987 146.472 25.052 146.531 24.908L148.179 20.66C148.222 20.5533 148.291 20.4653 148.387 20.396C148.488 20.3267 148.6 20.292 148.723 20.292H150.307ZM155.637 24.996C155.066 25.0227 154.586 25.0733 154.197 25.148C153.808 25.2173 153.496 25.308 153.261 25.42C153.026 25.532 152.858 25.6627 152.757 25.812C152.656 25.9613 152.605 26.124 152.605 26.3C152.605 26.6467 152.706 26.8947 152.909 27.044C153.117 27.1933 153.386 27.268 153.717 27.268C154.122 27.268 154.472 27.196 154.765 27.052C155.064 26.9027 155.354 26.6787 155.637 26.38V24.996ZM151.109 21.436C152.053 20.572 153.189 20.14 154.517 20.14C154.997 20.14 155.426 20.22 155.805 20.38C156.184 20.5347 156.504 20.7533 156.765 21.036C157.026 21.3133 157.224 21.6467 157.357 22.036C157.496 22.4253 157.565 22.852 157.565 23.316V28.5H156.669C156.482 28.5 156.338 28.4733 156.237 28.42C156.136 28.3613 156.056 28.2467 155.997 28.076L155.821 27.484C155.613 27.6707 155.41 27.836 155.213 27.98C155.016 28.1187 154.81 28.236 154.597 28.332C154.384 28.428 154.154 28.5 153.909 28.548C153.669 28.6013 153.402 28.628 153.109 28.628C152.762 28.628 152.442 28.5827 152.149 28.492C151.856 28.396 151.602 28.2547 151.389 28.068C151.176 27.8813 151.01 27.6493 150.893 27.372C150.776 27.0947 150.717 26.772 150.717 26.404C150.717 26.196 150.752 25.9907 150.821 25.788C150.89 25.58 151.002 25.3827 151.157 25.196C151.317 25.0093 151.522 24.8333 151.773 24.668C152.024 24.5027 152.33 24.3587 152.693 24.236C153.061 24.1133 153.488 24.0147 153.973 23.94C154.458 23.86 155.013 23.812 155.637 23.796V23.316C155.637 22.7667 155.52 22.3613 155.285 22.1C155.05 21.8333 154.712 21.7 154.269 21.7C153.949 21.7 153.682 21.7373 153.469 21.812C153.261 21.8867 153.077 21.972 152.917 22.068C152.757 22.1587 152.61 22.2413 152.477 22.316C152.349 22.3907 152.205 22.428 152.045 22.428C151.906 22.428 151.789 22.3933 151.693 22.324C151.597 22.2493 151.52 22.164 151.461 22.068L151.109 21.436Z" fill="white"/>
</svg>
